<?xml version="1.0" encoding="UTF-8" standalone="no"?>
<svg
   xmlns:sketch="http://www.bohemiancoding.com/sketch/ns"
   xmlns:dc="http://purl.org/dc/elements/1.1/"
   xmlns:cc="http://creativecommons.org/ns#"
   xmlns:rdf="http://www.w3.org/1999/02/22-rdf-syntax-ns#"
   xmlns:svg="http://www.w3.org/2000/svg"
   xmlns="http://www.w3.org/2000/svg"
   xmlns:sodipodi="http://sodipodi.sourceforge.net/DTD/sodipodi-0.dtd"
   xmlns:inkscape="http://www.inkscape.org/namespaces/inkscape"
   width="138"
   height="128"
   viewBox="0 0 138 128"
   version="1.1"
   id="svg22"
   sodipodi:docname="gitlab.svg"
   inkscape:version="1.0.1 (1.0.1+r73)">
  <metadata
     id="metadata26">
    <rdf:RDF>
      <cc:Work
         rdf:about="">
        <dc:format>image/svg+xml</dc:format>
        <dc:type
           rdf:resource="http://purl.org/dc/dcmitype/StillImage" />
        <dc:title>Group</dc:title>
      </cc:Work>
    </rdf:RDF>
  </metadata>
  <sodipodi:namedview
     pagecolor="#ffffff"
     bordercolor="#666666"
     borderopacity="1"
     objecttolerance="10"
     gridtolerance="10"
     guidetolerance="10"
     inkscape:pageopacity="0"
     inkscape:pageshadow="2"
     inkscape:window-width="1680"
     inkscape:window-height="997"
     id="namedview24"
     showgrid="false"
     scale-x="1"
     inkscape:zoom="5.4600307"
     inkscape:cx="85.039729"
     inkscape:cy="63.880475"
     inkscape:window-x="0"
     inkscape:window-y="0"
     inkscape:window-maximized="1"
     inkscape:current-layer="layer2"
     inkscape:document-rotation="0" />
  <!-- Generator: Sketch 3.3.2 (12043) - http://www.bohemiancoding.com/sketch -->
  <title
     id="title2">Group</title>
  <desc
     id="desc4">Created with Sketch.</desc>
  <defs
     id="defs6" />
  <g
     inkscape:groupmode="layer"
     id="layer2"
     inkscape:label="back"
     style="display:inline">
    <g
       id="Group-0"
       style="fill:none;fill-rule:evenodd;stroke:none;stroke-width:1"
       transform="matrix(0.61966392,0,0,0.61901334,3.8620021,3.6690973)">
      <path
         id="Fill-4-2"
         style="fill:#f3f3f3;fill-opacity:1;stroke-width:0.936582"
         d="m 166.5625,-5.6992188 c -5.99726,-0.00584 -11.77734,3.7878215 -14.17301,9.2817819 -1.19383,2.8900894 -1.95061,5.9355775 -2.99728,8.8791609 -5.58972,17.117576 -11.17944,34.235153 -16.76916,51.352729 -18.375,0 -36.750003,0 -55.125003,0 C 70.96272,43.825403 64.480158,23.818067 57.861328,3.8574219 55.41316,-2.1786523 48.847486,-6.1321834 42.378442,-5.6703909 35.999932,-5.3517225 30.137482,-0.72606126 28.272472,5.3719461 26.368683,11.466366 24.316679,17.515175 22.357225,23.592749 13.267156,51.452934 4.1347138,79.30006 -4.8757449,107.18492 c -2.1080575,7.91536 1.6300323,16.86183 8.5661556,21.14125 33.7900313,24.43231 67.5801753,48.86447 101.3701393,73.29688 34.44222,-24.90897 68.91002,-49.78302 103.3164,-74.74024 6.52524,-5.09423 8.9553,-14.63834 5.83226,-22.2767 C 203.25873,71.076899 192.34975,37.533528 181.32617,4.0292969 179.05464,-1.8808226 172.82323,-5.7692514 166.5625,-5.6992188 Z" />
      <path
         id="Fill-6-3"
         fill="#fc6d26"
         d="" />
      <path
         id="Fill-10-5"
         fill="#fc6d26"
         d="" />
      <path
         id="Fill-14-2"
         fill="#fc6d26"
         d="" />
    </g>
  </g>
  <g
     inkscape:groupmode="layer"
     id="layer1"
     inkscape:label="front"
     style="display:inline">
    <g
       id="Page-1"
       stroke="none"
       stroke-width="1"
       fill="none"
       fill-rule="evenodd"
       sketch:type="MSPage"
       transform="matrix(0.58177714,0,0,0.57835067,7.8421162,7.3404098)">
      <g
         id="Fill-1-+-Group-24"
         sketch:type="MSLayerGroup">
        <g
           id="Group-24"
           sketch:type="MSShapeGroup">
          <g
             id="Group">
            <path
               d="m 105.0614,193.655 v 0 l 38.64,-118.921 h -77.28 z"
               id="Fill-4"
               fill="#e24329" />
            <path
               id="Fill-6"
               fill="#fc6d26"
               d="" />
            <path
               d="M 105.0614,193.6548 66.4214,74.7338 H 12.2684 Z"
               id="Fill-8"
               fill="#fc6d26" />
            <path
               id="Fill-10"
               fill="#fc6d26"
               d="" />
            <path
               d="m 12.2685,74.7341 v 0 l -11.742,36.139 c -1.071,3.296 0.102,6.907 2.906,8.944 l 101.629,73.838 z"
               id="Fill-12"
               fill="#fca326" />
            <path
               id="Fill-14"
               fill="#fc6d26"
               d="" />
            <path
               d="m 12.2685,74.7342 h 54.153 L 43.1485,3.1092 c -1.197,-3.686 -6.411,-3.685 -7.608,0 z"
               id="Fill-16"
               fill="#e24329" />
            <path
               d="m 105.0614,193.6548 38.64,-118.921 h 54.153 z"
               id="Fill-18"
               fill="#fc6d26" />
            <path
               d="m 197.8544,74.7341 v 0 l 11.742,36.139 c 1.071,3.296 -0.102,6.907 -2.906,8.944 l -101.629,73.838 z"
               id="Fill-20"
               fill="#fca326" />
            <path
               d="m 197.8544,74.7342 h -54.153 l 23.273,-71.625 c 1.197,-3.686 6.411,-3.685 7.608,0 z"
               id="Fill-22"
               fill="#e24329" />
          </g>
        </g>
      </g>
    </g>
  </g>
</svg>
