<?xml version="1.0" encoding="UTF-8" standalone="no"?>
<svg
   xmlns:dc="http://purl.org/dc/elements/1.1/"
   xmlns:cc="http://creativecommons.org/ns#"
   xmlns:rdf="http://www.w3.org/1999/02/22-rdf-syntax-ns#"
   xmlns:svg="http://www.w3.org/2000/svg"
   xmlns="http://www.w3.org/2000/svg"
   xmlns:xlink="http://www.w3.org/1999/xlink"
   xmlns:sodipodi="http://sodipodi.sourceforge.net/DTD/sodipodi-0.dtd"
   xmlns:inkscape="http://www.inkscape.org/namespaces/inkscape"
   viewBox="0 0 200.00002 200.00002"
   version="1.1"
   id="svg21"
   sodipodi:docname="java.svg"
   width="200.00002"
   height="200.00002"
   inkscape:version="1.0.1 (1.0.1+r73)">
  <defs
     id="defs25">
    <radialGradient
       inkscape:collect="always"
       xlink:href="#linearGradient1134"
       id="radialGradient1138"
       cx="110.73818"
       cy="110.73818"
       fx="110.73818"
       fy="110.73818"
       r="111.93881"
       gradientUnits="userSpaceOnUse"
       gradientTransform="matrix(1.9943531,-0.00322892,0.00308929,1.9080406,-121.19314,-110.93538)" />
    <linearGradient
       inkscape:collect="always"
       id="linearGradient1134">
      <stop
         style="stop-color:#ffffff;stop-opacity:0.18757378"
         offset="0"
         id="stop1130" />
      <stop
         style="stop-color:#333333;stop-opacity:0.64569384"
         offset="1"
         id="stop1132" />
    </linearGradient>
  </defs>
  <sodipodi:namedview
     pagecolor="#ffffff"
     bordercolor="#666666"
     borderopacity="1"
     objecttolerance="10"
     gridtolerance="10"
     guidetolerance="10"
     inkscape:pageopacity="0"
     inkscape:pageshadow="2"
     inkscape:window-width="1680"
     inkscape:window-height="997"
     id="namedview23"
     showgrid="false"
     fit-margin-top="0"
     fit-margin-left="0"
     fit-margin-right="0"
     fit-margin-bottom="0"
     inkscape:zoom="2.758453"
     inkscape:cx="17.220003"
     inkscape:cy="118.18172"
     inkscape:window-x="0"
     inkscape:window-y="0"
     inkscape:window-maximized="1"
     inkscape:current-layer="svg21"
     inkscape:document-rotation="0" />
  <circle
     style="color:#000000;overflow:visible;fill:url(#radialGradient1138);fill-opacity:1;fill-rule:evenodd;stroke:#333333;stroke-width:2.31672;stroke-miterlimit:4;stroke-dasharray:none;stroke-dashoffset:128.239;stroke-opacity:1;paint-order:markers fill stroke;stop-color:#000000"
     id="path888"
     cx="100.00001"
     cy="100.00001"
     r="98.841644" />
  <g
     id="surface1"
     transform="matrix(2.7937656,0,0,2.7937656,32.949622,32.949622)"
     style="fill:none;stroke:#efefef;stroke-width:0.53690975;stroke-miterlimit:4;stroke-dasharray:none;stroke-opacity:1">
    <path
       d="M 23.503632,23.668795 C 22.420996,21.659182 21.636193,19.990541 20.54486,16.853096 18.701335,11.556159 31.753845,6.7688082 26.462404,-2.4324485 c 2.293538,6.357323 -8.237169,10.2841253 -9.213281,15.5785625 -0.896762,4.868536 6.250162,10.522681 6.253422,10.522681 z"
       fill="#f44336"
       id="path2"
       style="fill:none;stroke:#efefef;stroke-width:0.53690975;stroke-miterlimit:4;stroke-dasharray:none;stroke-opacity:1" />
    <path
       d="m 23.754726,14.141554 c -0.208701,3.141192 2.419628,4.819826 2.496803,7.112957 0.06305,1.868479 -1.571779,3.424712 -1.571779,3.424712 0,0 2.964207,-0.668206 3.890317,-3.517136 1.027201,-3.16742 -1.991355,-5.333157 -1.681565,-7.864845 0.288051,-2.425525 6.555604,-6.9231123 6.555604,-6.9231123 0,0 -9.217629,0.6969332 -9.68938,7.7674243 z"
       fill="#f44336"
       id="path4"
       style="fill:none;stroke:#efefef;stroke-width:0.53690975;stroke-miterlimit:4;stroke-dasharray:none;stroke-opacity:1" />
    <path
       d="m 32.086,25.055 c 1.754,-0.395 3.23,0.722 3.23,2.011 0,2.899 -4.02,5.641 -4.02,5.641 0,0 6.224,-0.742 6.224,-5.504 0,-3.148 -3.055,-3.937 -5.434,-2.148 z"
       fill="#1565c0"
       id="path6"
       style="fill:none;stroke:#efefef;stroke-width:0.53690975;stroke-miterlimit:4;stroke-dasharray:none;stroke-opacity:1" />
    <path
       d="m 29.129,27.395 c 0,0 1.941,-1.383 2.457,-1.903 -4.762,1.012 -15.637,1.149 -15.637,0.27 0,-0.809 3.508,-1.637 3.508,-1.637 0,0 -7.773,-0.113 -7.773,2.18 0,2.39 10.175,2.562 17.445,1.09 z"
       fill="#1565c0"
       id="path8"
       style="fill:none;stroke:#efefef;stroke-width:0.53690975;stroke-miterlimit:4;stroke-dasharray:none;stroke-opacity:1" />
    <path
       d="m 27.934,29.57 c -4.508,1.5 -12.813,1.02 -10.352,-0.992 -1.2,0 -2.977,0.961 -2.977,1.89 0,1.856 8.985,3.29 15.633,0.571 z"
       fill="#1565c0"
       id="path10"
       style="fill:none;stroke:#efefef;stroke-width:0.53690975;stroke-miterlimit:4;stroke-dasharray:none;stroke-opacity:1" />
    <path
       d="m 18.688,32.738 c -1.637,0 -2.696,1.055 -2.696,1.825 0,2.39 9.758,2.628 13.625,0.203 L 27.16,33.133 c -2.89,1.27 -10.144,1.445 -8.473,-0.395 z"
       fill="#1565c0"
       id="path12"
       style="fill:none;stroke:#efefef;stroke-width:0.53690975;stroke-miterlimit:4;stroke-dasharray:none;stroke-opacity:1" />
    <path
       d="m 36.281,36.633 c 0,-0.938 -1.054,-1.38 -1.433,-1.59 2.226,5.375 -22.318,4.957 -22.318,1.785 0,-0.723 1.809,-1.426 3.477,-1.094 l -1.418,-0.84 c -3.328,-0.519 -5.59,0.942 -5.59,2.122 0,5.504 27.281,5.238 27.281,-0.383 z"
       fill="#1565c0"
       id="path14"
       style="fill:none;stroke:#efefef;stroke-width:0.53690975;stroke-miterlimit:4;stroke-dasharray:none;stroke-opacity:1" />
    <path
       d="M 39,38.605 C 34.855,42.699 24.34,44.191 13.77,41.66 24.34,46.164 38.95,43.63 39,38.605 Z"
       fill="#1565c0"
       id="path16"
       style="fill:none;stroke:#efefef;stroke-width:0.53690975;stroke-miterlimit:4;stroke-dasharray:none;stroke-opacity:1" />
  </g>
  <metadata
     id="metadata19">
    <rdf:RDF>
      <rdf:Description
         about="https://iconscout.com/legal#licenses"
         dc:title="java"
         dc:description="java"
         dc:publisher="Iconscout"
         dc:date="2017-12-15"
         dc:format="image/svg+xml"
         dc:language="en">
        <dc:creator>
          <rdf:Bag>
            <rdf:li>Icons8</rdf:li>
          </rdf:Bag>
        </dc:creator>
      </rdf:Description>
      <cc:Work
         rdf:about="">
        <dc:format>image/svg+xml</dc:format>
        <dc:type
           rdf:resource="http://purl.org/dc/dcmitype/StillImage" />
        <dc:title />
      </cc:Work>
    </rdf:RDF>
  </metadata>
</svg>
