<?xml version="1.0" encoding="UTF-8" standalone="no"?>
<svg
   xmlns:dc="http://purl.org/dc/elements/1.1/"
   xmlns:cc="http://creativecommons.org/ns#"
   xmlns:rdf="http://www.w3.org/1999/02/22-rdf-syntax-ns#"
   xmlns:svg="http://www.w3.org/2000/svg"
   xmlns="http://www.w3.org/2000/svg"
   xmlns:sodipodi="http://sodipodi.sourceforge.net/DTD/sodipodi-0.dtd"
   xmlns:inkscape="http://www.inkscape.org/namespaces/inkscape"
   version="1.1"
   id="Layer_1"
   x="0px"
   y="0px"
   viewBox="0 0 128 128"
   xml:space="preserve"
   sodipodi:docname="linkedin.svg"
   width="128"
   height="128"
   inkscape:version="1.0.1 (1.0.1+r73)"><metadata
   id="metadata39"><rdf:RDF><cc:Work
       rdf:about=""><dc:format>image/svg+xml</dc:format><dc:type
         rdf:resource="http://purl.org/dc/dcmitype/StillImage" /><dc:title></dc:title></cc:Work></rdf:RDF></metadata><defs
   id="defs37" /><sodipodi:namedview
   pagecolor="#ffffff"
   bordercolor="#666666"
   borderopacity="1"
   objecttolerance="10"
   gridtolerance="10"
   guidetolerance="10"
   inkscape:pageopacity="0"
   inkscape:pageshadow="2"
   inkscape:window-width="1680"
   inkscape:window-height="997"
   id="namedview35"
   showgrid="false"
   inkscape:snap-page="true"
   inkscape:zoom="6.0546875"
   inkscape:cx="85.076362"
   inkscape:cy="47.109601"
   inkscape:window-x="0"
   inkscape:window-y="0"
   inkscape:window-maximized="1"
   inkscape:current-layer="Layer_1"
   inkscape:pagecheckerboard="true"
   inkscape:snap-global="true"
   inkscape:snap-bbox="true" />
<path
   style="fill:#f9f9f9;stroke-width:1"
   d="M 116.23057,0 H 11.719288 C 5.3448643,0 0.17725188,5.184 0.17725188,11.578638 V 116.42102 C 0.17725188,122.816 5.3448643,128 11.719288,128 H 116.23025 c 6.37475,0 11.54238,-5.184 11.54238,-11.57898 V 11.578638 C 127.77263,5.184 122.605,0 116.23057,0 Z"
   id="path2-3"
   sodipodi:nodetypes="sssssssss" /><path
   style="fill:#0077b7;stroke-width:0.999996"
   d="M 111.05729,5.4344367 H 16.083267 c -5.79272,0 -10.4887577,4.7438103 -10.4887577,10.5954593 v 95.939894 c 0,5.85197 4.6960377,10.59578 10.4887577,10.59578 h 94.973713 c 5.79303,0 10.48907,-4.74381 10.48907,-10.59578 V 16.029896 c 0,-5.851649 -4.69604,-10.5954593 -10.48876,-10.5954593 z M 41.474835,106.57319 c 0,1.70298 -1.366529,3.08343 -3.05238,3.08343 h -12.99325 c -1.685851,0 -3.052379,-1.38045 -3.052379,-3.08343 V 51.551905 c 0,-1.703002 1.366528,-3.083432 3.052379,-3.083432 h 12.99325 c 1.685851,0 3.05238,1.38043 3.05238,3.083432 z M 31.925829,43.281895 c -6.81716,0 -12.343679,-5.582739 -12.343679,-12.469252 0,-6.886514 5.526519,-12.469252 12.343679,-12.469252 6.817163,0 12.34368,5.582738 12.34368,12.469252 0,6.886513 -5.526212,12.469252 -12.34368,12.469252 z m 77.451401,63.539635 c 0,1.56564 -1.25666,2.83509 -2.80652,2.83509 H 92.627981 c -1.549867,0 -2.806513,-1.26945 -2.806513,-2.83509 V 81.013448 c 0,-3.849996 1.11793,-16.870867 -9.959993,-16.870867 -8.59286,0 -10.335775,8.912391 -10.685756,12.91202 v 29.766929 c 0,1.56564 -1.256342,2.83509 -2.806513,2.83509 H 52.884225 c -1.549867,0 -2.806513,-1.26945 -2.806513,-2.83509 V 51.303537 c 0,-1.565633 1.256646,-2.835064 2.806513,-2.835064 h 13.484981 c 1.549867,0 2.806513,1.269431 2.806513,2.835064 v 4.800229 c 3.186241,-4.830277 7.921435,-8.558544 18.003452,-8.558544 22.325839,0 22.198059,21.070112 22.198059,32.647082 z"
   id="path2" />
<g
   id="g4">
</g>
<g
   id="g6">
</g>
<g
   id="g8">
</g>
<g
   id="g10">
</g>
<g
   id="g12">
</g>
<g
   id="g14">
</g>
<g
   id="g16">
</g>
<g
   id="g18">
</g>
<g
   id="g20">
</g>
<g
   id="g22">
</g>
<g
   id="g24">
</g>
<g
   id="g26">
</g>
<g
   id="g28">
</g>
<g
   id="g30">
</g>
<g
   id="g32">
</g>
</svg>
