<?xml version="1.0" encoding="UTF-8" standalone="no"?>
<svg
   xmlns:dc="http://purl.org/dc/elements/1.1/"
   xmlns:cc="http://creativecommons.org/ns#"
   xmlns:rdf="http://www.w3.org/1999/02/22-rdf-syntax-ns#"
   xmlns:svg="http://www.w3.org/2000/svg"
   xmlns="http://www.w3.org/2000/svg"
   xmlns:sodipodi="http://sodipodi.sourceforge.net/DTD/sodipodi-0.dtd"
   xmlns:inkscape="http://www.inkscape.org/namespaces/inkscape"
   version="1.1"
   width="128"
   height="128"
   id="svg6"
   sodipodi:docname="mail.svg"
   inkscape:version="1.0.1 (1.0.1+r73)">
  <metadata
     id="metadata12">
    <rdf:RDF>
      <cc:Work
         rdf:about="">
        <dc:format>image/svg+xml</dc:format>
        <dc:type
           rdf:resource="http://purl.org/dc/dcmitype/StillImage" />
        <dc:title />
      </cc:Work>
    </rdf:RDF>
  </metadata>
  <defs
     id="defs10" />
  <sodipodi:namedview
     pagecolor="#ffffff"
     bordercolor="#666666"
     borderopacity="1"
     objecttolerance="10"
     gridtolerance="10"
     guidetolerance="10"
     inkscape:pageopacity="0"
     inkscape:pageshadow="2"
     inkscape:window-width="1680"
     inkscape:window-height="997"
     id="namedview8"
     showgrid="false"
     inkscape:zoom="4.2369838"
     inkscape:cx="56.281153"
     inkscape:cy="48.090205"
     inkscape:window-x="0"
     inkscape:window-y="0"
     inkscape:window-maximized="1"
     inkscape:current-layer="svg6"
     inkscape:document-rotation="0"
     inkscape:pagecheckerboard="true" />
  <path
     id="path831"
     style="color:#000000;overflow:visible;fill:#f9f9f9;fill-opacity:1;fill-rule:evenodd;stroke:none;stroke-width:3.77953;stroke-linejoin:round;stop-color:#000000"
     d="M 127.06801,63.999999 A 63.068008,63.068008 0 0 1 63.999999,127.06801 63.068008,63.068008 0 0 1 0.9319908,63.999999 63.068008,63.068008 0 0 1 63.999999,0.93199039 63.068008,63.068008 0 0 1 127.06801,63.999999 Z" />
  <g
     id="g4"
     transform="matrix(0.19074535,0,0,0.19952381,15.286888,13.835669)"
     style="fill:#008000;fill-opacity:1;stroke-width:1.3977">
    <path
       id="path2"
       style="fill:#008000;fill-opacity:1;stroke-width:1.3977"
       sodipodi:type="inkscape:offset"
       inkscape:radius="3.2967989"
       inkscape:original="M 267.12891 17.330078 C 254.13378 17.330468 241.1323 18.386234 228.12695 20.498047 C 175.07509 29.279615 129.57728 50.885021 91.632812 85.3125 L 89.525391 87.419922 C 83.907052 92.695384 78.638035 98.14183 73.716797 103.75977 C 73.373616 104.11389 73.025613 104.46189 72.671875 104.80469 C 72.317972 105.15881 71.963115 105.51367 71.609375 105.86719 C 67.041794 111.13191 62.651112 116.57835 58.4375 122.20703 C 25.06037 167.88232 8.373029 217.77082 8.3730469 271.87305 C 8.373029 271.87318 8.8984598 279.95168 9.9492188 296.10938 C 16.6289 347.75656 41.401601 391.14774 84.267578 426.2832 C 130.28559 463.87393 184.91768 482.66985 248.16602 482.66992 C 288.21181 482.66985 327.91027 475.29225 367.25977 460.53906 L 352.51172 425.22266 C 312.45459 436.46984 278.54567 442.09177 250.78711 442.0918 L 250.27344 442.0918 C 193.70479 442.09177 146.44835 424.52413 108.50391 389.38867 C 71.60996 355.31471 53.162047 313.50471 53.162109 263.95898 L 53.162109 263.44531 C 53.162047 212.84913 71.084538 167.69932 106.92773 127.99609 L 123.26758 111.65625 C 162.95967 75.824181 208.63 57.908553 260.27734 57.908203 L 268.7207 57.908203 C 317.90146 60.020753 359.88203 77.23353 394.66406 109.54883 C 428.74836 140.82472 445.79057 177.54117 445.79102 219.69922 L 445.79102 220.23047 C 445.79057 250.44478 436.82687 278.02207 418.90039 302.96094 C 400.28687 328.25385 379.73918 340.90046 357.25586 340.90039 C 353.38491 340.90046 349.86766 340.1976 346.70508 338.79297 L 346.17578 338.79297 C 335.98968 334.22554 330.89614 327.2028 330.89648 317.72461 L 330.89648 317.19336 C 330.89614 311.91831 333.00277 303.30947 337.2168 291.36523 L 384.64453 143.80469 L 340.91602 143.80469 L 329.32031 178.5918 L 328.78906 178.0625 C 315.44004 147.84861 294.18459 132.74051 265.02148 132.74023 L 263.97656 132.74023 C 229.19467 133.09433 198.27266 147.85247 171.21094 177.01562 C 143.46266 206.52233 129.58775 240.42635 129.58789 278.72461 L 129.58789 279.25391 C 129.58775 302.09154 135.55963 321.93832 147.50391 338.79297 C 164.01537 363.0351 186.67654 375.15628 215.48633 375.15625 L 216.01758 375.15625 C 242.3609 375.15628 267.12869 362.50967 290.32031 337.2168 C 295.24133 364.26805 314.56073 377.793 348.28125 377.79297 C 386.93309 377.793 419.60883 362.16142 446.30664 330.89648 C 446.66001 330.54274 447.01291 330.01731 447.36719 329.32031 C 476.87321 294.53877 491.62645 255.89116 491.62695 213.37891 L 491.62695 212.84961 C 491.62645 205.81628 491.10102 198.61121 490.05078 191.23438 C 483.7244 143.81194 460.18489 103.58313 419.43164 70.548828 C 376.22222 35.070624 325.4554 17.330468 267.12891 17.330078 z M 261.86914 166.4668 C 271.70079 166.46704 280.65958 168.92658 288.74414 173.84766 C 304.90164 183.33672 312.45472 197.74195 311.4043 217.0625 L 308.76562 237.61719 C 303.14706 267.12384 294.53823 290.30849 282.9375 307.17383 C 267.47633 330.01144 249.5607 341.42976 229.18945 341.42969 L 228.6582 341.42969 C 219.16914 341.42976 210.38777 338.4448 202.31445 332.47266 L 201.7832 332.47266 C 185.27137 320.52862 177.01543 302.78846 177.01562 279.25391 L 177.01562 278.72461 C 177.01543 250.96591 184.91847 226.02069 200.72266 203.89062 C 218.29553 178.94112 238.67755 166.46704 261.86914 166.4668 z "
       d="m 267.12891,14.033203 c -13.17363,3.95e-4 -26.35437,1.071271 -39.53125,3.210938 a 3.2971286,3.2971286 0 0 0 -0.01,0.002 c -53.61177,8.874248 -99.76252,30.777497 -138.169921,65.625 a 3.2971286,3.2971286 0 0 0 -0.117188,0.109375 l -2.107422,2.107422 0.07617,-0.07227 c -5.652359,5.307406 -10.957456,10.792584 -15.919922,16.449215 -0.319229,0.32941 -0.643671,0.65385 -0.972656,0.97266 a 3.2971286,3.2971286 0 0 0 -0.03711,0.0371 c -0.353433,0.35365 -0.707299,0.70752 -1.060547,1.06055 a 3.2971286,3.2971286 0 0 0 -0.160156,0.17187 c -4.619802,5.32491 -9.059688,10.83196 -13.320313,16.52344 a 3.2971286,3.2971286 0 0 0 -0.02344,0.0312 C 22.032389,166.43769 5.0761538,217.0929 5.0761719,271.87305 l 0.03125,-0.44922 c 0,0 0.00854,1.16789 0.074219,2.17773 0.065675,1.00985 0.1635718,2.52525 0.2949219,4.54492 0.2627002,4.03936 0.6582146,10.09889 1.1835937,18.17774 a 3.2971286,3.2971286 0 0 0 0.019531,0.20898 C 13.462234,348.97574 38.76418,393.24774 82.177734,428.83203 a 3.2971286,3.2971286 0 0 0 0.0039,0.004 c 46.591089,38.05885 102.082879,57.13079 165.984379,57.13086 40.45069,-7e-5 80.55825,-7.45761 120.25195,-22.33985 a 3.2971286,3.2971286 0 0 0 1.88476,-4.35742 l -14.74804,-35.31641 a 3.2971286,3.2971286 0 0 0 -3.9336,-1.90429 c -39.86621,11.19357 -73.52055,16.74606 -100.83398,16.74609 h -0.51367 c -55.8861,-3e-5 -102.18414,-17.24563 -139.5293,-51.82617 a 3.2971286,3.2971286 0 0 0 -0.004,-0.002 C 74.431352,353.43319 56.458923,312.68636 56.458984,263.95898 v -0.51367 c -6.1e-5,-49.79808 17.528403,-94.01857 52.876956,-133.19336 l 16.1875,-16.1875 c 39.15314,-35.327603 83.88892,-52.859027 134.7539,-52.859372 h 8.34961 c 48.47324,2.092076 89.5636,18.957931 123.79297,50.759762 a 3.2971286,3.2971286 0 0 0 0.0156,0.0137 c 33.54061,30.77699 50.05815,66.45111 50.05859,107.7207 v 0.53125 c -4.4e-4,29.55673 -8.71018,56.37016 -26.26172,80.79297 -18.2345,24.77142 -37.7342,36.58014 -58.97656,36.58008 -3.47184,6e-5 -6.50616,-0.62205 -9.21289,-1.82422 a 3.2971286,3.2971286 0 0 0 -0.99414,-0.26563 c -9.01257,-4.1877 -12.85576,-9.65551 -12.85547,-17.78906 v -0.53125 c -2.8e-4,-4.39709 1.96945,-12.92984 6.13281,-24.73047 a 3.2971286,3.2971286 0 0 0 0.0293,-0.0879 L 387.7832,144.81445 a 3.2971286,3.2971286 0 0 0 -3.13867,-4.30664 h -43.72851 a 3.2971286,3.2971286 0 0 0 -3.12696,2.25391 l -9.20898,27.62695 c -13.92557,-26.78529 -35.45268,-40.94504 -63.5586,-40.94531 h -1.04492 a 3.2971286,3.2971286 0 0 0 -0.0332,0 c -35.69359,0.36338 -67.61068,15.65496 -95.14648,45.32812 -6.5e-4,6.9e-4 -0.001,0.001 -0.002,0.002 -28.22636,30.0218 -42.50405,64.86333 -42.5039,103.95117 v 0.5293 c -1.5e-4,23.39883 6.16771,43.99263 18.5039,61.41406 17.0128,24.96557 40.96531,37.78519 70.69141,37.78515 h 0.53125 c 25.82134,3e-5 50.12904,-11.9211 72.60937,-34.83203 3.18807,11.34737 9.08925,20.50274 17.98243,26.72852 10.39824,7.27943 24.37084,10.74025 41.67187,10.74023 39.45759,3e-5 73.17898,-16.13353 100.35742,-47.86328 l 0.006,-0.008 c 0.72729,-0.73008 1.21188,-1.51852 1.66211,-2.4043 l -0.42578,0.63867 c 29.93467,-35.28683 45.04246,-74.79925 45.04297,-118.07421 v -0.5293 c -5.1e-4,-7.18789 -0.53745,-14.53961 -1.60547,-22.05078 l -0.002,-0.01 C 486.87861,142.55068 462.7929,101.45369 421.50781,67.988281 377.73943,32.05679 326.11701,14.033598 267.12891,14.033203 Z m -5.25977,155.730467 c 9.28187,2.3e-4 17.58285,2.28808 25.16016,6.90039 a 3.2971286,3.2971286 0 0 0 0.0449,0.0273 c 15.26664,8.96587 22.01512,21.78192 21.03906,40.11718 l -2.59961,20.25 c -5.5624,29.18068 -14.06811,51.92721 -25.29297,68.2461 a 3.2971286,3.2971286 0 0 0 -0.0137,0.0215 c -15.08435,22.28101 -31.87826,32.80671 -51.01758,32.80664 h -0.53125 c -8.79766,7e-5 -16.80614,-2.70579 -24.38281,-8.31054 a 3.2971286,3.2971286 0 0 0 -1.22266,-0.56055 C 187.8448,317.93952 180.31232,301.6756 180.3125,279.25391 v -0.5293 c -1.9e-4,-27.13294 7.66842,-51.31841 23.09375,-72.91797 a 3.2971286,3.2971286 0 0 0 0.0117,-0.0176 c 17.17969,-24.39127 36.44173,-36.02516 58.45117,-36.02539 z" />
  </g>
</svg>
