<?xml version="1.0" encoding="UTF-8" standalone="no"?>
<svg
   xmlns:dc="http://purl.org/dc/elements/1.1/"
   xmlns:cc="http://creativecommons.org/ns#"
   xmlns:rdf="http://www.w3.org/1999/02/22-rdf-syntax-ns#"
   xmlns:svg="http://www.w3.org/2000/svg"
   xmlns="http://www.w3.org/2000/svg"
   xmlns:sodipodi="http://sodipodi.sourceforge.net/DTD/sodipodi-0.dtd"
   xmlns:inkscape="http://www.inkscape.org/namespaces/inkscape"
   enable-background="new 0 0 123.9 120.1"
   version="1.1"
   viewBox="0 0 128 128"
   id="svg8"
   sodipodi:docname="phone.svg"
   width="128"
   height="128"
   inkscape:version="1.0.1 (1.0.1+r73)">
  <metadata
     id="metadata14">
    <rdf:RDF>
      <cc:Work
         rdf:about="">
        <dc:format>image/svg+xml</dc:format>
        <dc:type
           rdf:resource="http://purl.org/dc/dcmitype/StillImage" />
        <dc:title />
      </cc:Work>
    </rdf:RDF>
  </metadata>
  <defs
     id="defs12">
    <rect
       x="151.13582"
       y="-13.770123"
       width="205.6576"
       height="160.59509"
       id="rect914" />
    <inkscape:path-effect
       effect="perspective-envelope"
       up_left_point="24.048828,45.145412"
       up_right_point="73.47647,0.61203994"
       down_left_point="32.103869,114.3935"
       down_right_point="79.027023,127.74958"
       id="path-effect842"
       is_visible="true"
       lpeversion="1"
       deform_type="perspective"
       horizontal_mirror="false"
       vertical_mirror="false"
       overflow_perspective="false" />
  </defs>
  <sodipodi:namedview
     pagecolor="#ffffff"
     bordercolor="#666666"
     borderopacity="1"
     objecttolerance="10"
     gridtolerance="10"
     guidetolerance="10"
     inkscape:pageopacity="0"
     inkscape:pageshadow="2"
     inkscape:window-width="1680"
     inkscape:window-height="997"
     id="namedview10"
     showgrid="false"
     inkscape:zoom="3.1182348"
     inkscape:cx="127.24543"
     inkscape:cy="83.624177"
     inkscape:window-x="0"
     inkscape:window-y="0"
     inkscape:window-maximized="1"
     inkscape:current-layer="svg8"
     inkscape:snap-global="false"
     inkscape:document-rotation="0"
     inkscape:pagecheckerboard="true"
     inkscape:lockguides="true" />
  <style
     type="text/css"
     id="style2">.st0{fill:#494547;} .st1{fill:#FFFFFF;}</style>
  <rect
     style="color:#000000;overflow:visible;fill:#ffff9a;fill-opacity:1;fill-rule:evenodd;stroke:none;stroke-width:7.48682;stroke-linecap:round;stroke-linejoin:bevel;stroke-miterlimit:4;stroke-dasharray:none;stop-color:#000000"
     id="rect860"
     width="127.80083"
     height="127.9782"
     x="0.62585592"
     y="0.33533531"
     ry="28.65955"
     rx="27.548231" />
  <path
     id="rect839"
     style="color:#000000;overflow:visible;fill:#535353;fill-opacity:1;fill-rule:evenodd;stroke:none;stroke-width:24.2932;stroke-linejoin:round;stroke-opacity:0;paint-order:markers fill stroke;stop-color:#000000"
     d="m 41.69379,9.5529951 c -5.433982,0.00186 -9.808467,4.3776759 -9.806626,9.8116529 l 0.03034,89.292792 c 0.0022,5.43398 4.379304,9.80683 9.813286,9.80499 l 45.327705,-0.0155 c 5.433982,-0.002 9.806835,-4.37767 9.804994,-9.81164 l -0.03034,-89.292797 c -0.0022,-5.433977 -4.377683,-9.8068349 -9.811665,-9.8049892 z m 5.598221,8.8013769 34.137244,-0.0116 c 3.444009,-0.0012 6.217318,2.77026 6.21849,6.214268 l 0.02026,59.755759 c 0.0011,3.444009 -2.770264,6.217323 -6.214273,6.218494 l -34.137244,0.0116 c -3.444009,0.0012 -6.217318,-2.77026 -6.21849,-6.214268 l -0.02026,-59.755761 c -0.0011,-3.444008 2.770253,-6.217323 6.214273,-6.218492 z m 16.999526,79.031685 c 0.03198,-1.97e-4 0.06397,-1.72e-4 0.09595,-3.4e-5 4.199139,-0.0012 7.604307,3.401667 7.605982,7.600817 0.0011,4.19912 -3.401684,7.60428 -7.600812,7.60598 -4.199139,10e-4 -7.604296,-3.40168 -7.605982,-7.60081 -0.0011,-4.16196 3.343268,-7.551774 7.50488,-7.605954 z"
     sodipodi:nodetypes="sssssscsssssssssssccccccc" />
  <path
     style="color:#000000;overflow:visible;fill:#f9f9f9;fill-opacity:1;fill-rule:evenodd;stroke:none;stroke-width:24.2932;stroke-linejoin:round;stroke-opacity:0;paint-order:markers fill stroke;stop-color:#000000"
     d="m 64.291016,97.386719 c 0.03198,-1.97e-4 0.06372,-1.38e-4 0.0957,0 4.199139,-0.0012 7.605747,3.400461 7.607422,7.599611 0.0011,4.19912 -3.402435,7.60572 -7.601563,7.60742 -4.199139,0.001 -7.603783,-3.40243 -7.605469,-7.60156 -0.0011,-4.16196 3.342295,-7.551291 7.503907,-7.605471 z"
     id="path954" />
  <path
     style="color:#000000;overflow:visible;fill:#f9f9f9;fill-opacity:1;fill-rule:evenodd;stroke:none;stroke-width:24.2932;stroke-linejoin:round;stroke-opacity:0;paint-order:markers fill stroke;stop-color:#000000"
     d="m 81.429688,18.341797 -34.136719,0.01172 c -3.44402,0.0012 -6.215944,2.774742 -6.214844,6.21875 l 0.01953,59.755859 c 0.0012,3.444008 2.774741,6.216044 6.21875,6.214844 l 34.136719,-0.01172 c 3.444009,-0.0012 6.215944,-2.774741 6.214844,-6.21875 l -0.01953,-59.755859 c -0.0012,-3.444008 -2.774742,-6.216044 -6.21875,-6.214844 z"
     id="path952" />
</svg>
