<?xml version="1.0" encoding="UTF-8" standalone="no"?>
<svg
   xmlns:dc="http://purl.org/dc/elements/1.1/"
   xmlns:cc="http://creativecommons.org/ns#"
   xmlns:rdf="http://www.w3.org/1999/02/22-rdf-syntax-ns#"
   xmlns:svg="http://www.w3.org/2000/svg"
   xmlns="http://www.w3.org/2000/svg"
   xmlns:xlink="http://www.w3.org/1999/xlink"
   xmlns:sodipodi="http://sodipodi.sourceforge.net/DTD/sodipodi-0.dtd"
   xmlns:inkscape="http://www.inkscape.org/namespaces/inkscape"
   version="1.1"
   id="svg29"
   xml:space="preserve"
   width="200"
   height="200"
   viewBox="0 0 200 200"
   sodipodi:docname="spring.svg"
   inkscape:version="1.0.1 (1.0.1+r73)"><metadata
     id="metadata35"><rdf:RDF><cc:Work
         rdf:about=""><dc:format>image/svg+xml</dc:format><dc:type
           rdf:resource="http://purl.org/dc/dcmitype/StillImage" /><dc:title /></cc:Work></rdf:RDF></metadata><defs
     id="defs33"><radialGradient
       inkscape:collect="always"
       xlink:href="#linearGradient1134"
       id="radialGradient1138"
       cx="110.73818"
       cy="110.73818"
       fx="110.73818"
       fy="110.73818"
       r="111.93881"
       gradientUnits="userSpaceOnUse"
       gradientTransform="matrix(1.4957649,-0.00242171,0.00231698,1.4310306,-142.55814,-181.11311)" /><linearGradient
       inkscape:collect="always"
       id="linearGradient1134"><stop
         style="stop-color:#ffffff;stop-opacity:0.18757378"
         offset="0"
         id="stop1130" /><stop
         style="stop-color:#333333;stop-opacity:0.64569384"
         offset="1"
         id="stop1132" /></linearGradient></defs><sodipodi:namedview
     pagecolor="#ffffff"
     bordercolor="#666666"
     borderopacity="1"
     objecttolerance="10"
     gridtolerance="10"
     guidetolerance="10"
     inkscape:pageopacity="0"
     inkscape:pageshadow="2"
     inkscape:window-width="1680"
     inkscape:window-height="997"
     id="namedview31"
     showgrid="false"
     inkscape:zoom="10.326711"
     inkscape:cx="72.380255"
     inkscape:cy="150.10392"
     inkscape:window-x="0"
     inkscape:window-y="0"
     inkscape:window-maximized="1"
     inkscape:current-layer="g37"
     inkscape:document-rotation="0"
     inkscape:snap-global="false" /><g
     id="g37"
     inkscape:groupmode="layer"
     inkscape:label="ink_ext_XXXXXX"
     transform="matrix(1.3333333,0,0,-1.3333333,68.884392,130.54876)"><circle
       style="color:#000000;overflow:visible;fill:url(#radialGradient1138);fill-opacity:1;fill-rule:evenodd;stroke:#333333;stroke-width:1.73754;stroke-miterlimit:4;stroke-dasharray:none;stroke-dashoffset:128.239;stroke-opacity:1;paint-order:markers fill stroke;stop-color:#000000"
       id="path888"
       cx="23.336708"
       cy="-22.911568"
       transform="scale(1,-1)"
       r="74.131233" /><path
       d="m 54.611636,52.173847 c -7.678544,7.880555 -18.810198,14.260179 -30.656527,14.260179 -23.30277292,-2e-6 -42.258652,-18.958025 -42.258652,-42.256507 0,-30.2565245 18.96029274,-41.890404 42.258652,-42.261335 15.22441,-0.135669 27.722344,8.193288 34.60742,20.3661779 1.593794,2.8178471 2.886854,5.8489413 3.843396,9.0410191"
       style="fill:none;fill-opacity:1;fill-rule:nonzero;stroke:#efefef;stroke-width:1.125;stroke-miterlimit:4;stroke-dasharray:none;stroke-opacity:1"
       id="path55-9-9-2"
       inkscape:connector-curvature="0"
       sodipodi:nodetypes="csccsc" /><path
       d="M 58.398299,5.5788055 C 47.982684,-8.298631 25.733443,-3.6143319 11.468714,-4.2881058 c 0,0 -2.5252198,-0.1404948 -5.0686905,-0.5591524 0,0 0.9617415,0.4102655 2.1882974,0.8331279 C 18.607073,-0.54948153 23.341704,0.14671248 29.429393,3.2736678 40.867586,9.1328653 52.251205,21.895667 54.567437,35.153743 50.213745,22.402393 36.972309,11.427625 24.91556,6.9710493 17.252805,5.2421584 7.3956183,1.4941007 1.1341534,1.2804044 -9.015109,6.2182983 -9.3079615,28.200039 9.1251068,35.285792 c 8.0818492,3.108887 15.8122822,1.401371 24.5490102,3.48088 9.318247,2.215493 20.110507,9.200151 24.497122,18.331777 3.580147,-10.61904 7.684915,-25.602224 5.5636,-38.412605 -0.792514,-4.785899 -2.454024,-9.2685341 -5.33654,-13.1070385 z"
       style="fill:none;fill-opacity:1;fill-rule:nonzero;stroke:#efefef;stroke-width:1.12500003;stroke-linecap:round;stroke-linejoin:round;stroke-miterlimit:4;stroke-dasharray:none;stroke-opacity:1"
       id="path55-9"
       inkscape:connector-curvature="0"
       sodipodi:nodetypes="cccccccccccsc" /><circle
       style="color:#000000;overflow:visible;fill:none;fill-rule:evenodd;stroke:#efefef;stroke-width:1.125;stroke-linecap:round;stroke-linejoin:round;stroke-miterlimit:4;stroke-dasharray:none;stroke-dashoffset:128.239;stroke-opacity:1;paint-order:markers fill stroke;stop-color:#000000"
       id="path861"
       cx="-2.6013296"
       cy="5.7417407"
       transform="scale(1,-1)"
       r="3.7657886" /></g></svg>
