<?xml version="1.0" encoding="UTF-8" standalone="no"?>
<svg
   xmlns:dc="http://purl.org/dc/elements/1.1/"
   xmlns:cc="http://creativecommons.org/ns#"
   xmlns:rdf="http://www.w3.org/1999/02/22-rdf-syntax-ns#"
   xmlns:svg="http://www.w3.org/2000/svg"
   xmlns="http://www.w3.org/2000/svg"
   xmlns:xlink="http://www.w3.org/1999/xlink"
   xmlns:sodipodi="http://sodipodi.sourceforge.net/DTD/sodipodi-0.dtd"
   xmlns:inkscape="http://www.inkscape.org/namespaces/inkscape"
   version="1.1"
   id="svg29"
   xml:space="preserve"
   width="200"
   height="200"
   viewBox="0 0 200 200"
   sodipodi:docname="spring.svg"
   inkscape:version="1.0.1 (1.0.1+r73)"><metadata
     id="metadata35"><rdf:RDF><cc:Work
         rdf:about=""><dc:format>image/svg+xml</dc:format><dc:type
           rdf:resource="http://purl.org/dc/dcmitype/StillImage" /><dc:title /></cc:Work></rdf:RDF></metadata><defs
     id="defs33"><radialGradient
       inkscape:collect="always"
       xlink:href="#linearGradient1134"
       id="radialGradient1138"
       cx="110.73818"
       cy="110.73818"
       fx="110.73818"
       fy="110.73818"
       r="111.93881"
       gradientUnits="userSpaceOnUse"
       gradientTransform="matrix(1.4957649,-0.00242171,0.00231698,1.4310306,-142.55814,-181.11311)" /><linearGradient
       inkscape:collect="always"
       id="linearGradient1134"><stop
         style="stop-color:#ffffff;stop-opacity:0.18757378"
         offset="0"
         id="stop1130" /><stop
         style="stop-color:#333333;stop-opacity:0.64569384"
         offset="1"
         id="stop1132" /></linearGradient></defs><sodipodi:namedview
     pagecolor="#ffffff"
     bordercolor="#666666"
     borderopacity="1"
     objecttolerance="10"
     gridtolerance="10"
     guidetolerance="10"
     inkscape:pageopacity="0"
     inkscape:pageshadow="2"
     inkscape:window-width="1680"
     inkscape:window-height="997"
     id="namedview31"
     showgrid="false"
     inkscape:zoom="2.5816778"
     inkscape:cx="84.769738"
     inkscape:cy="96.453949"
     inkscape:window-x="0"
     inkscape:window-y="0"
     inkscape:window-maximized="1"
     inkscape:current-layer="g37"
     inkscape:document-rotation="0"
     inkscape:snap-global="false" /><g
     id="g37"
     inkscape:groupmode="layer"
     inkscape:label="ink_ext_XXXXXX"
     transform="matrix(1.3333333,0,0,-1.3333333,68.884392,130.54876)"><circle
       style="color:#000000;overflow:visible;fill:url(#radialGradient1138);fill-opacity:1;fill-rule:evenodd;stroke:#333333;stroke-width:1.73754;stroke-miterlimit:4;stroke-dasharray:none;stroke-dashoffset:128.239;stroke-opacity:1;paint-order:markers fill stroke;stop-color:#000000"
       id="path888"
       cx="23.336708"
       cy="-22.911568"
       transform="scale(1,-1)"
       r="74.131233" /><path
       d="M 54.710993,6.0022666 C 45.240253,-6.6162401 25.0094,-2.356891 12.038729,-2.9695415 c 0,0 -2.2961389,-0.1277494 -4.6088733,-0.508427 0,0 0.8744951,0.3730472 1.9897814,0.7575481 C 18.529516,0.42992368 22.834632,1.06296 28.370062,3.9062457 38.770617,9.2339101 49.121548,20.838899 51.227656,32.894228 47.268919,21.299656 35.228707,11.320495 24.265713,7.2682092 16.761979,4.4992749 3.1920933,1.8045297 3.1901409,1.8033925 c 0.00651,-0.0096 -0.540804,0.284069 -0.5484507,0.2904141 -9.2285507,4.4899395 -9.4948371,24.4775464 7.2660372,30.9204914 7.3486876,2.826854 14.3778346,1.27424 22.3219916,3.1651 8.472922,2.014511 18.286138,8.365537 22.274812,16.66876 4.471557,-13.263031 9.843155,-34.013191 0.206462,-46.8458914 z m 0.164651,50.9557724 c -1.127489,-2.678638 -2.503415,-5.092406 -4.089709,-7.25139 -6.981969,7.165648 -16.727181,11.630207 -27.498843,11.630207 -21.188809,0 -38.425067,-17.238198 -38.425067,-38.423086 0,-11.105836 4.740447,-21.1219306 12.2982159,-28.1426473 l 0.8414513,-0.7454761 c -1.405163,1.1458725 -1.6212406,3.2094518 -0.4823633,4.6158829 1.145857,1.40706577 3.2113574,1.62506297 4.6171878,0.48555195 C 3.5461215,-2.0149677 3.7608812,-4.0836393 2.6195634,-5.4926086 1.4824754,-6.9022287 -0.5867833,-7.1151332 -1.9944844,-5.9775259 l 0.5726112,-0.5071577 c 6.6852589,-5.6289304 15.3029812,-9.0290304 24.7089652,-9.0290304 20.253143,0 36.883842,15.76123839 38.307438,35.654646 1.054275,9.740317 -1.822691,22.108353 -6.718886,36.817107"
       style="fill:#eeeeee;fill-opacity:1;fill-rule:nonzero;stroke:#d6d6d6;stroke-width:0.375;stroke-miterlimit:4;stroke-dasharray:none;stroke-opacity:1"
       id="path55-9-0"
       inkscape:connector-curvature="0" /></g></svg>
